<?xml version="1.0" standalone="no"?>
<!DOCTYPE svg PUBLIC "-//W3C//DTD SVG 20010904//EN"
 "http://www.w3.org/TR/2001/REC-SVG-20010904/DTD/svg10.dtd">
<svg version="1.0" xmlns="http://www.w3.org/2000/svg"
 width="206.000000pt" height="148.000000pt" viewBox="0 0 206.000000 148.000000"
 preserveAspectRatio="xMidYMid meet">

<g transform="translate(0.000000,148.000000) scale(0.100000,-0.100000)"
fill="#000000" stroke="none">
<path d="M323 748 c-156 -354 -283 -647 -283 -651 0 -4 30 -7 68 -7 l67 0 245
565 c135 311 248 565 251 565 3 0 42 -84 86 -187 44 -104 154 -358 243 -565
l163 -378 126 0 c214 1 336 33 470 124 121 83 206 206 247 357 21 78 24 251 5
329 -55 228 -236 411 -467 470 -68 18 -111 20 -365 20 l-288 0 26 -59 25 -58
257 -6 c272 -6 316 -12 415 -61 300 -149 364 -601 118 -843 -95 -93 -232 -142
-398 -143 l-80 0 -256 583 -256 582 -69 3 -68 3 -282 -643z"/>
<path d="M992 1162 c2 -4 14 -33 27 -64 l24 -57 266 -3 c258 -3 268 -4 339
-30 39 -14 72 -22 72 -17 0 4 -22 30 -48 56 -54 54 -132 95 -210 112 -60 12
-476 15 -470 3z"/>
<path d="M395 335 c-55 -126 -102 -232 -103 -237 -2 -5 28 -8 67 -6 l72 3 64
152 c36 84 65 158 64 165 0 7 -15 44 -32 82 l-32 68 -100 -227z"/>
</g>
</svg>
